<?xml version="1.0" encoding="iso-8859-1"?>
<!-- Generator: Adobe Illustrator 19.0.0, SVG Export Plug-In . SVG Version: 6.00 Build 0)  -->
<svg version="1.1" id="Layer_1" xmlns="http://www.w3.org/2000/svg" xmlns:xlink="http://www.w3.org/1999/xlink" x="0px" y="0px"
	 viewBox="0 0 512 512" style="enable-background:new 0 0 512 512;" xml:space="preserve">
<circle style="fill:#FC6F58;" cx="256" cy="256" r="256"/>
<path style="fill:#F1543F;" d="M512,256c0-4.542-0.122-9.054-0.357-13.538L404.677,135.496L201.409,267.492l-95.341,75.181
	l168.643,168.643C407.359,501.732,512,391.09,512,256z"/>
<rect x="210.23" y="326.163" style="fill:#2B3B4E;" width="91.539" height="61.026"/>
<rect x="255.862" y="326.163" style="fill:#272525;" width="45.913" height="61.026"/>
<path style="fill:#324A5E;" d="M397.626,346.505h-283.25c-6.042,0-10.942-4.899-10.942-10.942V143.855
	c0-6.042,4.899-10.942,10.942-10.942h283.248c6.042,0,10.942,4.899,10.942,10.942v191.709
	C408.567,341.606,403.668,346.505,397.626,346.505z"/>
<path style="fill:#2B3B4E;" d="M397.626,132.913H255.859v213.592h141.767c6.042,0,10.942-4.899,10.942-10.942V143.855
	C408.567,137.811,403.668,132.913,397.626,132.913z"/>
<rect x="116.381" y="145.394" style="fill:#84DBFF;" width="279.238" height="188.63"/>
<rect x="255.862" y="145.394" style="fill:#31BAFD;" width="139.757" height="188.63"/>
<polygon style="fill:#324A5E;" points="217.762,295.1 168.315,245.657 217.762,196.213 228.731,207.186 190.259,245.657 
	228.731,284.129 "/>
<g>
	<polygon style="fill:#2B3B4E;" points="289.93,295.1 278.961,284.129 317.433,245.657 278.961,207.186 289.93,196.213 
		339.377,245.657 	"/>
	<polygon style="fill:#2B3B4E;" points="256.417,197.018 255.857,199.313 255.857,264.868 271.491,200.69 	"/>
</g>
<g>
	<polygon style="fill:#324A5E;" points="233.615,290.623 248.689,294.295 255.857,264.868 255.857,199.313 	"/>
	<rect x="194.974" y="377.018" style="fill:#324A5E;" width="122.053" height="30.513"/>
</g>
<rect x="255.862" y="377.018" style="fill:#2B3B4E;" width="61.169" height="30.513"/>
<g>
</g>
<g>
</g>
<g>
</g>
<g>
</g>
<g>
</g>
<g>
</g>
<g>
</g>
<g>
</g>
<g>
</g>
<g>
</g>
<g>
</g>
<g>
</g>
<g>
</g>
<g>
</g>
<g>
</g>
</svg>
