<?xml version="1.0" encoding="iso-8859-1"?>
<!-- Generator: Adobe Illustrator 19.0.0, SVG Export Plug-In . SVG Version: 6.00 Build 0)  -->
<svg version="1.1" id="Layer_1" xmlns="http://www.w3.org/2000/svg" xmlns:xlink="http://www.w3.org/1999/xlink" x="0px" y="0px"
	 viewBox="0 0 512 512" style="enable-background:new 0 0 512 512;" xml:space="preserve">
<circle style="fill:#34495E;" cx="256" cy="256" r="256"/>
<path style="fill:#203549;" d="M413.873,253.292l-0.878-0.878c-5.878-4.882-23.703-8.755-46.423-10.115l-74.514-74.511
	c-0.259-0.256-0.584-0.404-0.911-0.622v-0.069c-0.113-0.077-0.294-0.113-0.404-0.182c-0.179-0.077-0.292-0.148-0.476-0.22
	c-0.512-0.187-1.024-0.292-1.61-0.292h-18.762l-13.345-13.35l-1.539-1.533c-0.108-0.146-0.253-0.259-0.399-0.369
	c-0.952-0.765-1.974-1.426-3.075-1.938c-2.268-1.096-4.644-1.608-6.984-1.608h-10.204l30.902,73.364v20.81h-28.303
	c-11.103,0-21.56,0.486-31.168,1.306l-31.043-31.045c-0.325-0.422-0.717-0.801-1.144-1.144l-0.023-0.02
	c-0.366-0.294-0.768-0.55-1.208-0.768c-0.986-0.474-2.012-0.699-2.998-0.699h-4.385l13.274,31.526v5.668
	c-1.188,0.218-2.337,0.435-3.448,0.653c-0.013,0-0.028,0.008-0.044,0.008c-0.75,0.148-1.467,0.302-2.186,0.448
	c-1.142,0.238-2.243,0.479-3.305,0.724c-0.113,0.028-0.233,0.049-0.338,0.077c-0.003,0-0.008,0-0.01,0
	c-1.19,0.276-2.322,0.556-3.402,0.835c-0.02,0.008-0.041,0.015-0.061,0.02c-0.62,0.161-1.224,0.323-1.805,0.484
	c-0.02,0.008-0.036,0.008-0.051,0.013c-0.166,0.051-0.335,0.092-0.502,0.141c-0.015,0.005-0.028,0.005-0.044,0.013
	c-0.399,0.113-0.768,0.225-1.149,0.34c-0.371,0.108-0.75,0.22-1.098,0.333c-2.532,0.794-4.58,1.587-6.131,2.353
	c-0.095,0.044-0.187,0.092-0.276,0.138c-0.561,0.284-1.068,0.573-1.475,0.847c-0.061,0.036-0.136,0.077-0.189,0.115
	c-0.407,0.284-0.699,0.558-0.932,0.824c-0.069,0.077-0.131,0.154-0.182,0.23c-0.192,0.274-0.325,0.54-0.325,0.799
	c0,0.192,0.059,0.394,0.169,0.594c0.049,0.092,0.148,0.182,0.218,0.276c0.087,0.108,0.148,0.22,0.266,0.333
	c0.438,0.435,1.088,0.888,1.943,1.354l20.841,20.838l-1.664,3.976l-3.008,7.114l0.018,0.013l-3.561,8.471l-1.539,3.589v0.036h0.036
	l189.652,189.673c67.507-28.216,120.289-84.536,143.862-154.324L413.873,253.292z"/>
<g>
	<rect x="166.579" y="172.877" style="fill:#FFFFFF;" width="60.877" height="2.836"/>
	<rect x="166.579" y="336.282" style="fill:#FFFFFF;" width="60.877" height="2.847"/>
	<rect x="96.916" y="208.614" style="fill:#FFFFFF;" width="48.691" height="2.844"/>
	<rect x="96.916" y="300.544" style="fill:#FFFFFF;" width="48.691" height="2.836"/>
	<path style="fill:#FFFFFF;" d="M290.481,294.039v15.828h24.54c1.211,0,2.44-0.453,3.384-1.395c0.922-0.937,1.4-2.166,1.4-3.392
		v-6.236c0-1.236-0.479-2.458-1.4-3.4c-0.945-0.929-2.176-1.405-3.384-1.405H290.481z"/>
</g>
<path style="fill:#34495E;" d="M315.021,309.875h-1.605v-15.836h1.605c0.855,0,1.702,0.241,2.46,0.699v14.446
	C316.723,309.652,315.876,309.875,315.021,309.875z"/>
<path style="fill:#FFFFFF;" d="M264.148,329.782v15.831h24.525c1.234,0,2.473-0.479,3.392-1.413c0.942-0.934,1.421-2.163,1.421-3.4
	v-6.226c0-1.236-0.479-2.455-1.421-3.395c-0.919-0.942-2.158-1.398-3.392-1.398L264.148,329.782L264.148,329.782z"/>
<path style="fill:#34495E;" d="M288.673,345.618h-1.587v-15.836h1.587c0.878,0,1.728,0.23,2.478,0.694v14.441
	C290.401,345.388,289.549,345.618,288.673,345.618z"/>
<path style="fill:#FFFFFF;" d="M290.481,217.958v-15.836h24.54c1.211,0,2.44,0.463,3.384,1.403c0.922,0.934,1.4,2.163,1.4,3.392
	v6.236c0,1.229-0.479,2.452-1.4,3.392c-0.945,0.942-2.176,1.411-3.384,1.411h-24.54V217.958z"/>
<path style="fill:#34495E;" d="M315.021,202.122h-1.605v15.836h1.605c0.855,0,1.702-0.228,2.46-0.701v-14.449
	C316.723,202.348,315.876,202.122,315.021,202.122z"/>
<path style="fill:#FFFFFF;" d="M264.148,182.218v-15.831h24.525c1.234,0,2.473,0.471,3.392,1.408
	c0.942,0.937,1.421,2.161,1.421,3.402v6.231c0,1.229-0.479,2.452-1.421,3.384c-0.919,0.942-2.158,1.405-3.392,1.405L264.148,182.218
	L264.148,182.218z"/>
<path style="fill:#34495E;" d="M288.673,166.39h-1.587v15.831h1.587c0.878,0,1.728-0.233,2.478-0.694v-14.436
	C290.401,166.62,289.549,166.39,288.673,166.39z"/>
<g>
	<path style="fill:#CEE2F2;" d="M234.358,364.406h10.186c2.35,0,4.716-0.512,6.973-1.608c2.248-1.083,4.116-2.637,5.571-4.475
		l72.2-91.533v-21.573l-72.2-91.533c-1.454-1.851-3.323-3.4-5.571-4.48c-2.258-1.096-4.623-1.608-6.973-1.608h-10.186l30.876,73.385
		v70.036L234.358,364.406z"/>
	<path style="fill:#CEE2F2;" d="M164.977,302.579h4.372c1.004,0,2.035-0.218,2.998-0.686c0.955-0.474,1.784-1.132,2.388-1.93
		l31.022-39.329v-9.267l-31.022-39.334c-0.604-0.794-1.434-1.459-2.388-1.923c-0.963-0.463-1.994-0.694-2.998-0.694h-4.372
		l13.276,31.532v30.1L164.977,302.579z"/>
</g>
<g>
	<polygon style="fill:#34495E;" points="168.013,298.967 181.724,271.744 181.724,240.259 168.013,213.025 166.497,213.025 
		178.253,240.947 178.253,271.048 166.497,298.967 	"/>
	<polygon style="fill:#34495E;" points="272.202,219.571 239.672,154.583 237.304,154.583 265.234,220.979 265.234,291.016 
		237.304,357.414 239.672,357.414 272.202,292.426 	"/>
</g>
<path style="fill:#FFFFFF;" d="M415.089,256c0-7.862-29.714-14.236-66.383-14.236H236.961c-48.607,0-85.66,9.295-85.66,14.234l0,0
	V256c0,4.941,37.056,14.236,85.66,14.236h111.744C385.372,270.236,415.089,263.862,415.089,256z"/>
<path style="fill:#CEE2F2;" d="M412.152,258.468c-13.801,2.227-31.772,3.589-51.497,3.589H228.526
	c-31.073,0-58.14-2.788-76.454-6.141c5.276,4.421,40.146,11.238,84.89,11.238h111.744
	C378.552,267.154,403.786,263.498,412.152,258.468z"/>
<path style="fill:#34495E;" d="M399.268,256c0,3.461-3.976,6.62-10.534,9.098c9.562-2.478,15.306-5.637,15.306-9.098
	c0-3.464-5.745-6.625-15.306-9.098C395.292,249.375,399.268,252.536,399.268,256z"/>
<g>
</g>
<g>
</g>
<g>
</g>
<g>
</g>
<g>
</g>
<g>
</g>
<g>
</g>
<g>
</g>
<g>
</g>
<g>
</g>
<g>
</g>
<g>
</g>
<g>
</g>
<g>
</g>
<g>
</g>
</svg>
