<?xml version="1.0" encoding="iso-8859-1"?>
<!-- Generator: Adobe Illustrator 19.0.0, SVG Export Plug-In . SVG Version: 6.00 Build 0)  -->
<svg version="1.1" id="Layer_1" xmlns="http://www.w3.org/2000/svg" xmlns:xlink="http://www.w3.org/1999/xlink" x="0px" y="0px"
	 viewBox="0 0 511.991 511.991" style="enable-background:new 0 0 511.991 511.991;" xml:space="preserve">
<circle style="fill:#00CC96;" cx="255.995" cy="255.995" r="255.995"/>
<path style="fill:#07B587;" d="M511.541,240.863L343.837,73.159l37.841,107.502l6.134,104.235l-41.052-41.052l-33.828,48.849
	L139.781,119.542l-13.531,19.551L294.126,306.97l-13.531,2.236L131.927,160.537l-7.167,9.231l9.288,9.002l-1.778,14.85
	l120.117,120.232l-11.525,1.95L126.251,201.188l-6.594,10.263l106.93,106.7l-75.223,12.613l79.753,79.753l-18.806,27.176
	l72.529,72.529c127.684-14.448,226.93-122.811,226.93-254.337c0-5.045-0.172-10.091-0.458-15.079L511.541,240.863z"/>
<path style="fill:#FFD630;" d="M216.324,351.634c-9.575,9.174-27.864,4.53-36.006,2.809c-4.759-0.974-6.077-4.358-3.268-8.198
	l61.004-75.109l0.115,0.172l0.115-0.172l61.004,75.109c2.809,3.785,1.491,7.167-3.268,8.198c-8.141,1.663-26.431,6.365-36.006-2.809
	c-6.193-5.962-13.99-12.212-21.787-12.212h-0.115h-0.115c-7.797,0-15.595,6.25-21.787,12.212H216.324z"/>
<path style="fill:#C94545;" d="M129.576,243.844c-8.027,9.403-15.079,44.835,0,66.738c18.52,29.871,77.975,45.983,90.417,9.518
	c5.16-15.079,15.595-24.596,18.233-26.833c2.637,2.179,13.072,11.754,18.233,26.833c12.442,36.465,71.898,20.353,90.417-9.518
	c15.079-21.902,7.969-57.335,0-66.738c-17.945-21.157-199.238-21.157-217.185,0L129.576,243.844L129.576,243.844z"/>
<path style="fill:#D2E3EA;" d="M135.024,248.489c-7.052,8.313-8.027,30.904-6.135,41.109c1.089,5.962,3.153,11.868,6.594,16.914
	l0.172,0.287c5.618,9.059,15.365,16.226,24.883,20.698c10.377,4.873,25.572,8.543,37.325,4.988
	c13.36-81.874,67.311-81.76,80.612,0.057c20.698,6.594,51.83-9.002,62.209-25.744l0.172-0.287c0.745-1.089,1.376-2.179,2.007-3.325
	c2.293-4.243,3.727-8.887,4.587-13.589c1.835-10.205,0.917-32.796-6.134-41.109c-4.186-4.873-28.209-8.601-34.458-9.403
	c-12.04-1.606-24.367-2.58-36.694-3.21c-5.045,7.683-17.43,13.129-31.993,13.129c-14.563,0-26.947-5.447-31.993-13.129
	c-12.327,0.573-24.654,1.606-36.694,3.21C163.232,239.946,139.151,243.615,135.024,248.489z"/>
<path style="fill:#FFFFFF;" d="M144.713,317.234c1.663,1.434,3.382,2.809,5.217,4.071l48.276-85.027
	c-2.637,0.172-5.217,0.344-7.855,0.573L144.713,317.234z M158.702,326.579c0.63,0.287,1.204,0.63,1.835,0.917
	c4.702,2.236,10.377,4.186,16.283,5.332l48.448-85.314c-7.052-1.72-12.9-4.816-16.742-8.658l-49.882,87.779L158.702,326.579z
	 M264.543,290.229c1.262,2.122,2.465,4.415,3.612,6.88l33.369-58.711c-2.351-0.287-4.702-0.516-7.11-0.745l-29.871,52.634V290.229z
	 M272.97,309.321c2.236,6.823,4.071,14.563,5.504,23.221c0.86,0.287,1.72,0.516,2.58,0.688l50.684-89.213
	c-6.135-1.778-13.818-3.21-19.322-4.128L272.97,309.321z"/>
<path style="fill:#FFD630;" d="M333.516,92.997h18.117l39.217,83.881v155.148v7.224v20.87c0,71.784-74.364,72.93-76.255,72.758
	l-88.869,3.899v-15.997l86.748-4.186c31.706-2.924,63.584-19.035,60.889-68.629c0-56.073-0.63-114.325-0.63-171.202l-39.217-83.881
	L333.516,92.997L333.516,92.997z"/>
<path style="fill:#C94545;" d="M371.701,258.407h20.067c1.742,0,3.153,1.412,3.153,3.153v35.777c0,1.742-1.412,3.153-3.153,3.153
	h-20.067c-1.742,0-3.153-1.412-3.153-3.153v-35.777C368.548,259.82,369.959,258.407,371.701,258.407z"/>
<path style="fill:#E6E6E6;" d="M226.644,404.956h21.902c2.027,0,3.67,1.643,3.67,3.669v25.227c0,2.027-1.643,3.67-3.67,3.67h-21.902
	c-2.027,0-3.67-1.643-3.67-3.67v-25.227C222.975,406.599,224.618,404.956,226.644,404.956z"/>
<g>
	<path style="fill:#C94545;" d="M215.12,414.187h44.951c2.122,0,3.842,1.72,3.842,3.842v16.971c0,2.122-1.72,3.842-3.842,3.842
		H215.12c-2.122,0-3.842-1.72-3.842-3.842v-16.971C211.279,415.906,212.999,414.187,215.12,414.187z"/>
	<path style="fill:#C94545;" d="M343.837,73.216c1.089-0.057,2.122,0.401,2.752,1.319l0,0l0.057,0.057v0.057v0.057v0.057v0.057
		l0.057,0.057l0,0l0.057,0.057l0,0l0.057,0.057l16.054,31.935c0.802,1.548,0.172,3.44-1.376,4.243l-17.945,9.002
		c-1.548,0.802-3.44,0.172-4.243-1.376l-2.924-5.79h-0.057c-1.835,0.745-5.275,0.516-6.25-1.262L312.532,79.98
		c-0.974-1.778-0.516-4.415,1.491-4.587l27.635-2.122c0.688-0.057,1.491-0.057,2.179,0L343.837,73.216L343.837,73.216z"/>
</g>
<path style="fill:#FFFFFF;" d="M123.098,200.443c3.325,0,6.02,2.695,6.02,6.02c0,3.325-2.695,6.02-6.02,6.02
	c-3.325,0-6.02-2.695-6.02-6.02C117.077,203.138,119.772,200.443,123.098,200.443z M127.857,158.874
	c3.268,0,5.905,2.637,5.905,5.905s-2.637,5.905-5.905,5.905c-3.268,0-5.905-2.637-5.905-5.905
	C121.951,161.513,124.588,158.874,127.857,158.874z M131.583,213.973c1.663,0,3.038,1.376,3.038,3.038s-1.376,3.038-3.038,3.038
	s-3.039-1.376-3.039-3.038C128.545,215.35,129.921,213.973,131.583,213.973z M148.21,140.642c4.702,0,8.485,3.785,8.485,8.485
	c0,4.702-3.785,8.485-8.485,8.485c-4.702,0-8.485-3.785-8.485-8.485S143.509,140.642,148.21,140.642z M131.297,115.988
	c6.651,0,12.098,5.389,12.098,12.098c0,6.651-5.389,12.098-12.098,12.098c-6.651,0-12.098-5.389-12.098-12.098
	C119.199,121.435,124.588,115.988,131.297,115.988z M139.955,175.559c5.905,0,10.664,4.759,10.664,10.664
	c0,5.905-4.759,10.664-10.664,10.664c-5.905,0-10.664-4.759-10.664-10.664C129.29,180.318,134.048,175.559,139.955,175.559z"/>
<g>
</g>
<g>
</g>
<g>
</g>
<g>
</g>
<g>
</g>
<g>
</g>
<g>
</g>
<g>
</g>
<g>
</g>
<g>
</g>
<g>
</g>
<g>
</g>
<g>
</g>
<g>
</g>
<g>
</g>
</svg>
